<?xml version="1.0" ?><!DOCTYPE svg  PUBLIC '-//W3C//DTD SVG 1.0//EN'  'http://www.w3.org/TR/2001/REC-SVG-20010904/DTD/svg10.dtd'><svg height="64px" style="shape-rendering:geometricPrecision; text-rendering:geometricPrecision; image-rendering:optimizeQuality; fill-rule:evenodd; clip-rule:evenodd" version="1.0" viewBox="0 0 64000 64000" width="64px" xml:space="preserve" xmlns="http://www.w3.org/2000/svg" xmlns:xlink="http://www.w3.org/1999/xlink"><defs><style type="text/css">
   <![CDATA[
    .fil0 {fill:#27afb7;fill-rule:nonzero}
   ]]>
  </style></defs><g id="Layer_x0020_1"><path class="fil0" d="M32000 0c8837,0 16838,3584 22628,9372 5789,5790 9372,13791 9372,22628 0,8834 -3584,16838 -9372,22628 -5790,5789 -13791,9372 -22628,9372 -8837,0 -16838,-3584 -22628,-9372 -5789,-5790 -9372,-13794 -9372,-22628 0,-8837 3584,-16838 9372,-22628 371,-371 752,-732 1142,-1085l19 -18 19 -17c5674,-5127 13197,-8252 21448,-8252zm8001 44000c0,552 -449,1000 -1000,1000 -552,0 -1000,-449 -1000,-1000l0 -24000c0,-552 449,-1000 1000,-1000l26 0 6973 0c552,0 1000,449 1000,1000l0 26 0 23974c0,552 -449,1000 -1000,1000 -552,0 -1000,-449 -1000,-1000l0 -23000 -4998 0 0 23000zm-10001 0c0,552 -449,1000 -1000,1000 -552,0 -1000,-449 -1000,-1000l0 -15000c0,-552 449,-1000 1000,-1000l26 0 5974 0c552,0 1000,449 1000,1000l0 26 0 14974c0,552 -449,1000 -1000,1000 -552,0 -1000,-449 -1000,-1000l0 -14000 -3999 0 0 14000zm-11000 0c0,552 -449,1000 -1000,1000 -552,0 -1000,-449 -1000,-1000l0 -8000c0,-552 449,-1000 1000,-1000l26 0 6973 0c552,0 1000,449 1000,1000l0 26 0 7974c0,552 -449,1000 -1000,1000 -552,0 -1000,-449 -1000,-1000l0 -6999 -4998 0 0 6999zm-6333 -34939l4260 4260c4120,-3327 9363,-5322 15072,-5322 4017,0 7804,986 11130,2731l3001 -5198c-4211,-2252 -9023,-3532 -14131,-3532 -7365,0 -14111,2658 -19333,7061zm2754 5584l-4243 -4243 -392 384c-5427,5428 -8786,12930 -8786,21213 0,8283 3359,15784 8786,21213 5428,5427 12930,8786 21213,8786 8283,0 15784,-3359 21213,-8786l385 -392 -4243 -4243 -384 393 -61 57c-4338,4308 -10315,6972 -16910,6972 -6625,0 -12625,-2688 -16967,-7029l-2 -2 -2 2c-4342,-4342 -7029,-10345 -7029,-16971 0,-6628 2687,-12630 7029,-16971l393 -383zm33108 31871l84 -96 4 -4c3353,-3861 5382,-8903 5382,-14418 0,-6076 -2463,-11576 -6443,-15556 -3980,-3980 -9481,-6443 -15556,-6443 -5518,0 -10562,2032 -14423,5386l-19 18 -74 64c-358,314 -705,640 -1041,976 -3980,3980 -6443,9481 -6443,15556 0,6074 2463,11576 6443,15556l-2 2c3980,3978 9482,6441 15559,6441 6052,0 11532,-2443 15509,-6391l47 -52c330,-330 648,-670 958,-1019l15 -20zm2150 555l4260 4260c4404,-5221 7060,-11967 7060,-19333 0,-8283 -3359,-15784 -8786,-21213 -1612,-1612 -3409,-3044 -5354,-4257l-3002 5199c1491,948 2872,2056 4115,3299 4342,4342 7029,10343 7029,16971 0,5707 -1994,10952 -5321,15072z"/></g></svg>