<?xml version="1.0" ?><!DOCTYPE svg  PUBLIC '-//W3C//DTD SVG 1.0//EN'  'http://www.w3.org/TR/2001/REC-SVG-20010904/DTD/svg10.dtd'><svg height="64px" style="shape-rendering:geometricPrecision; text-rendering:geometricPrecision; image-rendering:optimizeQuality; fill-rule:evenodd; clip-rule:evenodd" version="1.0" viewBox="0 0 16788 16787" width="64px" xml:space="preserve" xmlns="http://www.w3.org/2000/svg" xmlns:xlink="http://www.w3.org/1999/xlink"><defs><style type="text/css">
   <![CDATA[
    .fil0 {fill:#27afb7;fill-rule:nonzero}
   ]]>
  </style></defs><g id="Layer_x0020_1"><path class="fil0" d="M1904 8121c-140,37 -283,-46 -321,-186 -37,-140 46,-283 186,-321l6678 -1798 877 -3005c27,-94 103,-161 193,-182l0 0 5163 -1200 -1691 -939c-126,-70 -171,-229 -101,-355 70,-126 229,-171 355,-101l2361 1312c124,69 170,224 104,349l-1047 2094c-64,129 -222,181 -350,117 -129,-64 -181,-222 -117,-350l835 -1670 -5246 1220 -870 2981c-20,94 -90,173 -189,199l-6820 1836zm-656 1582l3436 0c143,0 274,59 370,154l1 1c94,95 154,226 154,370l0 788c0,144 -59,276 -154,371l-1 0c-79,78 -182,132 -296,148l0 5 0 788 0 1c129,9 247,66 334,152l1 1c94,95 154,226 154,370l0 788c0,144 -59,276 -154,371l-1 0c-95,94 -226,154 -370,154l-197 0 0 787 197 0c143,0 274,59 370,154l1 1c94,95 154,226 154,370l0 788c0,144 -59,276 -154,371l-1 0c-95,94 -226,154 -370,154l-3410 0c-143,0 -274,-59 -370,-154l-1 0c-94,-94 -154,-226 -154,-371l0 -788 -263 0c-144,0 -276,-59 -371,-154 -94,-94 -154,-226 -154,-371l0 -788c0,-143 59,-274 154,-370l0 -1c94,-94 226,-154 371,-154l263 0 0 -787c-139,-3 -267,-61 -360,-154l-1 0c-94,-94 -154,-226 -154,-371l0 -788c0,-143 59,-274 154,-370l0 -1c78,-78 182,-132 297,-148l0 -5 0 -788c0,-143 59,-274 154,-370l0 -1c94,-94 226,-154 371,-154zm3435 525l-3435 0 0 787 3435 0 0 -787zm-451 1312l-3435 0 0 787 3435 0 0 -787zm489 1312l-3410 0 0 787 3410 0 0 -787zm-722 1312l-3475 0 0 787 3475 0 0 -787zm722 1312l-3410 0 0 787 3410 0 0 -787zm4747 -6558l-3435 0 0 787 3435 0 0 -787zm-3435 -525l3436 0c143,0 274,59 370,154l1 1c94,95 154,226 154,370l0 788 0 1c135,6 257,64 346,153l0 1c94,95 154,226 154,370l0 787 0 0c144,0 276,59 371,154 94,94 154,226 154,371l0 788c0,144 -59,276 -154,371 -94,94 -226,154 -371,154l-5 0 0 787c0,144 -59,276 -154,371 -94,94 -224,152 -366,154l0 788c139,3 266,62 358,153l0 1c94,95 154,226 154,370l0 788c0,144 -59,276 -154,371 -94,94 -226,154 -371,154l-3398 0c-144,0 -276,-59 -371,-154 -94,-94 -154,-226 -154,-371l0 -788 0 0c-143,0 -274,-59 -370,-154l-1 0c-94,-94 -154,-226 -154,-371l0 -788c0,-143 59,-274 154,-370l0 -1c94,-94 226,-154 371,-154l0 0 0 -787c0,-143 59,-274 154,-370l0 -1c94,-94 226,-154 371,-154l11 0 0 -787 -36 0c-144,0 -276,-59 -371,-154 -94,-94 -154,-226 -154,-371l0 -788 0 -1c-134,-7 -255,-64 -345,-153l-1 0c-94,-94 -154,-226 -154,-371l0 -788c0,-143 59,-274 154,-370l0 -1c94,-94 226,-154 371,-154zm3935 1837l-3435 0 0 787 553 0 7 0 2875 0 0 -787zm524 1311l-517 0 -7 0 -2875 0 0 787 2870 0 7 0 522 0 0 -787zm-529 1311l-2870 0 -7 0 -528 0 0 787 3405 0 0 -787zm-520 1312l-3410 0 0 787 3410 0 0 -787zm512 1312l-3397 0 0 787 3397 0 0 -787zm2873 -9707l3436 0c143,0 274,59 370,154l1 1c94,95 154,226 154,370l0 788c0,144 -59,276 -154,371l-1 0c-95,94 -226,154 -370,154l-4 0 0 787 4 0c143,0 274,59 370,154l1 1c94,95 154,226 154,370l0 788c0,144 -59,276 -154,371l-1 0c-94,94 -223,152 -365,154l0 788c0,144 -59,276 -154,371l-1 0c-35,34 -74,64 -117,88 2,21 4,43 4,66l0 788c0,23 -2,46 -5,68 41,23 79,52 112,85l1 1c94,95 154,226 154,370l0 788c0,144 -59,276 -154,371l-1 0c-94,93 -222,151 -362,154l0 787c143,0 274,59 368,154l1 1c94,95 154,226 154,370l0 788c0,144 -59,276 -154,371l-1 0c-95,94 -226,154 -370,154l-3436 0c-143,0 -274,-59 -370,-154l-1 0c-94,-94 -154,-226 -154,-371l0 -788c-143,0 -274,-59 -368,-154l-1 0c-94,-94 -154,-226 -154,-371l0 -788c0,-143 59,-274 154,-370l0 -1c94,-94 226,-154 371,-154l53 0 0 -787 2 -51c-54,-26 -103,-60 -145,-102l-1 0c-94,-94 -154,-226 -154,-371l0 -788c0,-143 59,-274 154,-370l0 -1c28,-28 60,-53 94,-75 -4,-26 -6,-52 -6,-79l0 -788c0,-143 59,-274 154,-370l0 -1c94,-94 223,-152 366,-154l0 -787 0 -5c-135,-18 -257,-81 -349,-173l-1 -1c-110,-110 -178,-262 -178,-429l0 -703c0,-143 59,-274 154,-370l0 -1c94,-94 226,-154 371,-154l4 0 0 -787c0,-143 59,-274 154,-370l0 -1c94,-94 226,-154 371,-154zm3435 525l-3435 0 0 787 3435 0 0 -787zm-529 1312l-3435 0 0 702c0,23 9,44 24,59l1 1c15,15 37,24 59,24l3351 0 0 -787zm529 1312l-3435 0 0 787 3435 0 0 -787zm-520 1312l-3435 0 0 787 3435 0 0 -787zm-267 1312l-3410 0 0 787 3410 0 0 -787zm262 1312l-3375 0 0 787 3375 0 0 -787zm-517 1312l-3435 0 0 787 3435 0 0 -787zm523 1312l-3435 0 0 787 3435 0 0 -787z"/></g></svg>